<svg xmlns="http://www.w3.org/2000/svg" viewBox="0 0 120.12 108.36">
  <path fill="#7c0006" d="M55.08,54.18c-.2-1.61-.66-3.19-1.36-4.69-.7-1.5-1.66-2.91-2.84-4.19-1.18-1.27-2.57-2.42-4.14-3.4-1.28-.78-2.6-1.45-3.92-1.96-1.33-.52-2.92-1.04-4.74-1.55l-9.28-2.59-1.53,5.49c-.34,1.21-.67,2.39-.99,3.53l-.46,1.64c-.45,1.6-.84,3.08-1.17,4.38-.35,1.37-.65,2.5-.91,3.45-.53,2.16-.92,3.97-1.15,5.4-.23,1.44-.09,2.73.42,3.86.4.79,1.12,1.56,2.15,2.31,1.02.74,2.63,1.42,4.78,2.02,1.84.51,3.89.96,6.09,1.33,1.08.18,2.17.27,3.27.27,1.17,0,2.34-.1,3.52-.31,3-.5,5.55-1.59,7.59-3.25,1.02-.83,1.88-1.82,2.6-2.96.71-1.14,1.27-2.44,1.68-3.88.46-1.64.59-3.29.39-4.9ZM54.57,59.04c-.8,2.86-2.22,5.14-4.23,6.78-2.02,1.65-4.55,2.73-7.53,3.23-2.28.39-4.54.4-6.74.03-2.19-.37-4.24-.82-6.07-1.33-2.14-.6-3.73-1.27-4.74-2-1.01-.73-1.72-1.49-2.11-2.26-.5-1.1-.64-2.37-.42-3.78.23-1.42.61-3.23,1.14-5.39.26-.94.56-2.07.91-3.45.33-1.3.72-2.78,1.17-4.38l.46-1.64c.32-1.14.65-2.32.98-3.53l1.5-5.36,9.15,2.55c1.82.51,3.41,1.03,4.73,1.55,1.31.51,2.62,1.17,3.9,1.95,1.55.98,2.94,2.11,4.11,3.38,1.17,1.27,2.12,2.66,2.82,4.15.7,1.49,1.15,3.06,1.35,4.65.06.48.09.97.09,1.46,0,1.12-.16,2.26-.47,3.39ZM59.09,19.59c-1-2.65-2.59-4.83-4.73-6.46-2.53-1.92-6.06-3.52-10.47-4.75-1.31-.37-2.54-.65-3.66-.84-1.13-.19-1.98-.28-2.6-.27h-.04s-.02.04-.02.04c-.14.28-.28.56-.45.88-.15.27-.29.62-.44,1.03-.14.4-.32.9-.53,1.54-.19.58-.46,1.35-.83,2.42-.62,1.97-1.28,4.15-1.96,6.49-.67,2.27-1.32,4.55-1.94,6.77-.58,2.09-1.09,3.9-1.51,5.43l-.08.29c-.38,1.35-.6,2.16-.67,2.42l-.02.06.06.02c2.09.58,3.86,1.08,5.32,1.48,1.48.42,2.64.71,3.54.9,2.44.55,4.7.83,6.78.83,2.83,0,5.32-.51,7.44-1.54,3.67-1.78,6.07-4.63,7.15-8.48.79-2.83.68-5.61-.32-8.26ZM59.29,27.82c-1.06,3.81-3.44,6.63-7.08,8.39-3.64,1.77-8.39,2-14.13.7-.89-.19-2.05-.48-3.53-.89-1.44-.4-3.19-.89-5.26-1.47.09-.31.31-1.1.66-2.36l.08-.3c.43-1.53.93-3.33,1.51-5.43.62-2.22,1.27-4.5,1.94-6.77.69-2.34,1.35-4.53,1.96-6.49.37-1.07.63-1.84.83-2.42.21-.64.39-1.14.53-1.54.15-.41.29-.75.44-1.01.16-.31.3-.58.43-.85.61,0,1.44.08,2.54.26,1.11.19,2.34.47,3.65.84,4.4,1.23,7.91,2.82,10.43,4.73,2.12,1.62,3.69,3.77,4.69,6.4.99,2.63,1.1,5.38.32,8.18Z"/>
  <path fill="#7c0006" d="M120.11,54.99l-.25-1.41c-.12-.68-.25-1.4-.39-2.16-.23-1.29-.48-2.63-.74-3.97-.28-1.43-.51-2.71-.73-3.92l-.33-1.88c-.1-.58-.2-1.12-.29-1.63-.43-2.42-.82-4.75-1.14-6.9-.32-2.15-.58-4.04-.78-5.61-.21-1.63-.41-3.24-.6-4.79-.18-1.48-.18-2.53,0-3.12.3-1.13.86-2.04,1.68-2.71.82-.67,1.98-1.23,3.45-1.68l.05-.02-.12-.67-15.37,2.74.12.67h.05c1.99-.1,3.59.08,4.73.53,1.14.45,2.02,1.15,2.6,2.08.46.7.83,1.72,1.11,3.04.28,1.33.55,2.74.81,4.19l3.3,18.51-34.44-25.12-.02-.02-12.51,2.23h-.01c-.2-.61-.46-1.2-.76-1.78-1.47-2.78-3.7-5.19-6.63-7.17-1.83-1.24-3.83-2.31-5.94-3.17-2.11-.86-4.39-1.64-6.79-2.31L18.17.02l-.06-.02-.27.97.05.02c1.64.64,2.91,1.25,3.78,1.83.85.57,1.63,1.44,2.32,2.6.28.43.42,1.06.43,1.87,0,.82-.04,1.74-.15,2.74-.11,1-.28,2.05-.51,3.09-.23,1.07-.49,2.12-.77,3.12-.5,1.78-.89,3.25-1.21,4.51-.33,1.32-.68,2.61-1.02,3.83l-2.53,9.06c-.36,1.29-.74,2.65-1.14,4.08-.46,1.65-.94,3.31-1.43,4.95-.48,1.6-.93,3.08-1.34,4.42-.39,1.3-.71,2.38-.95,3.21-.25.88-.53,1.8-.86,2.72-.32.91-.69,1.78-1.07,2.57-.41.83-.78,1.51-1.15,2.1-.36.58-.75,1.01-1.15,1.25-1.12.65-2.48,1.03-4.03,1.14-1.56.11-3.18.06-4.81-.16h-.05s-.27.96-.27.96l32.83,9.16c2.76.77,5.69,1.5,8.72,2.16,3.02.66,5.88.93,8.49.81,1.52-.06,3.12-.34,4.75-.83,1.33-.39,2.62-.94,3.84-1.62-.19.18-.37.36-.54.54-2.31,2.36-4.04,4.87-5.16,7.48-.79,1.82-1.33,3.64-1.59,5.4-.26,1.76-.34,3.42-.22,4.94.12,1.52.36,2.93.72,4.19.36,1.26.76,2.35,1.19,3.24,1.46,3.03,3.35,5.54,5.63,7.46,2.28,1.92,4.89,3.25,7.76,3.95,1.6.39,3.29.59,5.07.59,1.42,0,2.9-.13,4.42-.38,3.42-.57,7.08-1.78,10.87-3.6,3.13-1.5,5.42-3.4,7.01-5.8.51-.77.99-1.61,1.51-2.65l1.72,3.58,6.99-3.36.06-.03-7.3-15.18c-.25-.67-.34-1.24-.26-1.67.12-.65.52-1.3,1.19-1.9.7-.63,1.36-1.13,2-1.52l.05-.03-.31-.65-17.67,8.49-.06.03.31.65.05-.02c2.38-.93,4.27-1.16,5.62-.67.97.31,1.78.93,2.39,1.85.29.43.59.93.92,1.52.29.51.59,1.08.91,1.75.3.63.55,1.2.76,1.72.28.68.53,1.37.75,2.03.4,1.24.56,2.17.47,2.78-.32,1.77-1.18,3.36-2.54,4.73-1.37,1.38-3.03,2.54-4.94,3.46-2.66,1.28-5.27,1.97-7.78,2.06-2.5.09-4.9-.35-7.11-1.29-2.21-.94-4.28-2.39-6.14-4.33-1.86-1.93-3.47-4.31-4.8-7.08-1.21-2.51-1.98-5.15-2.29-7.82-.3-2.67-.14-5.27.48-7.74.63-2.46,1.76-4.76,3.36-6.81,1.61-2.06,3.75-3.75,6.37-5.01,2.46-1.18,4.9-1.89,7.25-2.1,2.34-.21,4.47-.02,6.32.58,1.42.44,2.94,1.17,4.51,2.17,1.56,1,2.96,2.21,4.16,3.6l.03.04.82-.4-.03-.06c-.43-.89-.85-1.77-1.28-2.66-.1-.21-.2-.42-.3-.63l-.02-.03c-1.27-2.69-2.41-5.39-3.26-7.44-.4-.97-.8-1.94-1.19-2.91l-.35-.86c-.21-.52-.45-1.02-.68-1.51-.12-.27-.25-.53-.37-.8-1.09-2.4-1.52-4.87-1.97-7.48-.24-1.36-.48-2.73-.72-4.09-.57-3.19-1.14-6.37-1.71-9.56l-.81-4.52c3.18,2.21,6.29,4.42,9.25,6.57,2.96,2.15,6.02,4.38,9.08,6.62l.35.25c2.99,2.19,6.12,4.48,9.4,6.87,3.35,2.45,7.04,5.13,11.3,8.19.49.3.9.42,1.25.36.22-.04.38-.12.47-.24.1-.13.13-.27.1-.43Z"/>
</svg>
